<svg xmlns="http://www.w3.org/2000/svg" width="16" height="11" fill="none"><path fill="#fff" d="M15.5 1H.5A.49.49 0 0 1 .16.85.47.47 0 0 1 0 .51.5.5 0 0 1 .15.15C.25.05.36 0 .5 0h14.98c.15 0 .27.05.36.15.1.1.15.21.15.36 0 .13-.05.24-.15.34-.1.1-.21.15-.36.15Zm0 5H.5a.49.49 0 0 1-.35-.15.47.47 0 0 1-.15-.34.5.5 0 0 1 .15-.36C.25 5.05.36 5 .5 5h14.98c.15 0 .27.05.36.15.1.1.15.22.15.36 0 .13-.05.24-.15.34-.1.1-.21.15-.36.15Zm0 5H.5a.49.49 0 0 1-.35-.15.47.47 0 0 1-.15-.34.5.5 0 0 1 .15-.36c.1-.1.21-.15.36-.15h14.98c.15 0 .27.05.36.15.1.1.15.22.15.36 0 .13-.05.25-.15.34-.1.1-.21.15-.36.15Z"></path></svg>