<svg xmlns="http://www.w3.org/2000/svg" width="24" height="22" fill="none"><rect width="24" height="22" fill="#fff" rx="7"></rect><rect width="23.5" height="21.5" x=".25" y=".25" stroke="#3D3D3D" stroke-opacity=".3" stroke-width=".5" rx="6.75"></rect><path stroke="#3D3D3D" stroke-linejoin="round" stroke-opacity=".6" stroke-width=".5" d="M12 13c1.29 0 2.33-.9 2.33-2S13.3 9 12 9s-2.33.9-2.33 2 1.04 2 2.33 2Z"></path><path stroke="#3D3D3D" stroke-linecap="round" stroke-linejoin="round" stroke-opacity=".6" stroke-width=".5" d="M12 7c-3.43 0-5.99 2.6-6.85 3.61-.2.23-.2.55 0 .78C6 12.39 8.57 15 12 15c3.43 0 5.99-2.6 6.85-3.61.2-.23.2-.55 0-.78C18 9.61 15.43 7 12 7Z"></path></svg>