<svg xmlns="http://www.w3.org/2000/svg" width="32" height="32" fill="none"><path fill="#3D3D3D" d="M16 0c-4.34 0-4.89.02-6.6.1-1.7.07-2.86.34-3.88.74-1.05.4-1.94.96-2.83 1.85A7.85 7.85 0 0 0 .84 5.52C.44 6.54.17 7.7.1 9.4.02 11.1 0 11.65 0 16s.02 4.89.1 6.6c.08 1.7.34 2.86.74 3.88.4 1.05.96 1.94 1.85 2.83a7.84 7.84 0 0 0 2.83 1.85c1.02.4 2.18.67 3.88.74 1.71.08 2.25.1 6.6.1s4.89-.02 6.6-.1c1.7-.07 2.86-.34 3.88-.74a7.83 7.83 0 0 0 2.83-1.85 7.85 7.85 0 0 0 1.85-2.83c.4-1.02.66-2.18.74-3.88.08-1.71.1-2.25.1-6.6s-.02-4.9-.1-6.6c-.08-1.7-.35-2.86-.74-3.88a7.85 7.85 0 0 0-1.85-2.83A7.82 7.82 0 0 0 26.48.83C25.46.44 24.3.17 22.59.1 20.9.02 20.34 0 16 0H16Zm-1.43 2.88H16c4.27 0 4.78.02 6.47.1 1.56.07 2.4.33 2.97.55.74.29 1.28.63 1.84 1.2.56.55.9 1.09 1.2 1.83.21.57.47 1.41.54 2.97.08 1.69.1 2.2.1 6.47s-.02 4.77-.1 6.46a8.85 8.85 0 0 1-.55 2.97 4.95 4.95 0 0 1-1.2 1.84c-.55.56-1.09.9-1.83 1.2-.57.21-1.41.47-2.97.55-1.69.07-2.2.09-6.47.09s-4.78-.02-6.46-.1a8.88 8.88 0 0 1-2.98-.55 4.96 4.96 0 0 1-1.84-1.2c-.56-.55-.9-1.08-1.2-1.83a8.84 8.84 0 0 1-.54-2.97c-.08-1.69-.1-2.2-.1-6.47s.02-4.77.1-6.46c.07-1.56.33-2.4.55-2.97.29-.75.63-1.28 1.2-1.84.55-.56 1.09-.9 1.83-1.2a8.84 8.84 0 0 1 2.98-.55 88.8 88.8 0 0 1 5.03-.1v.01Z"></path><path fill="#3D3D3D" d="M24.5 5.5a1.92 1.92 0 1 0 0 3.84 1.92 1.92 0 0 0 0-3.84Z"></path><path fill="#3D3D3D" fill-rule="evenodd" d="M15.97 7.74a8.22 8.22 0 1 0 0 16.44 8.22 8.22 0 0 0 0-16.44ZM16 21.25a5.25 5.25 0 1 0 0-10.5 5.25 5.25 0 0 0 0 10.5Z" clip-rule="evenodd"></path></svg>