<svg xmlns="http://www.w3.org/2000/svg" width="182" height="30" fill="none"><g clip-path="url('#a')"><path fill="#3D3D3D" d="M51.68 7h3.67l-1.86 10.85a6.7 6.7 0 0 1-1.45 3.2 7.67 7.67 0 0 1-2.9 2.14c-1.16.5-2.47.76-3.9.76a7.93 7.93 0 0 1-3.65-.76 4.67 4.67 0 0 1-2.14-2.14 5.2 5.2 0 0 1-.35-3.2L40.96 7h3.67l-1.82 10.55c-.1.64-.05 1.2.15 1.7.21.5.56.88 1.04 1.17a4.32 4.32 0 0 0 3.71 0 3.9 3.9 0 0 0 2.15-2.87L51.68 7Zm7.67 9.47-1.26 7.24h-3.6l2.17-12.53h3.43l-.37 2.21h.14a4.5 4.5 0 0 1 1.75-1.74 5.2 5.2 0 0 1 2.58-.63c.9 0 1.66.19 2.26.57.61.38 1.04.92 1.3 1.62.25.7.29 1.54.12 2.52l-1.4 7.98h-3.6l1.28-7.36c.13-.76.03-1.36-.3-1.8-.33-.43-.86-.65-1.59-.65-.49 0-.93.1-1.34.3-.4.2-.75.5-1.02.89-.27.38-.46.84-.55 1.38ZM74.85 7l-2.89 16.71h-3.6L71.22 7h3.61Zm4.95 16.96a6.12 6.12 0 0 1-3.3-.82 4.43 4.43 0 0 1-1.84-2.28 6.74 6.74 0 0 1-.2-3.42c.22-1.29.67-2.4 1.35-3.37a7.01 7.01 0 0 1 2.58-2.25 7.6 7.6 0 0 1 3.53-.8c1.32 0 2.42.27 3.29.82.87.54 1.48 1.3 1.84 2.28.35.98.42 2.12.2 3.42a8.1 8.1 0 0 1-1.35 3.37 7.18 7.18 0 0 1-6.1 3.05Zm.35-2.7c.61 0 1.15-.16 1.62-.5.47-.33.87-.79 1.18-1.36.31-.59.53-1.24.66-1.98.12-.72.13-1.36.02-1.92a2.4 2.4 0 0 0-.67-1.34c-.34-.33-.8-.5-1.4-.5-.61 0-1.15.18-1.63.51-.47.34-.87.8-1.18 1.37a6.45 6.45 0 0 0-.67 3.91c.1.56.32 1 .67 1.33.34.33.8.49 1.4.49Zm13.27 2.7a6.1 6.1 0 0 1-3.3-.82 4.36 4.36 0 0 1-1.8-2.28c-.35-.98-.4-2.1-.18-3.36a8.08 8.08 0 0 1 1.34-3.38 7.15 7.15 0 0 1 2.6-2.28 7.59 7.59 0 0 1 3.56-.82c1.14 0 2.1.2 2.88.6.79.39 1.36.95 1.73 1.66.37.72.5 1.57.37 2.53h-3.4c.01-.62-.16-1.12-.5-1.5-.33-.4-.83-.59-1.48-.59a2.9 2.9 0 0 0-1.56.45c-.47.28-.87.7-1.2 1.26a5.9 5.9 0 0 0-.68 2.02c-.13.8-.13 1.48 0 2.04.12.56.37.98.74 1.28.37.3.83.44 1.39.44a2.75 2.75 0 0 0 2.11-.96c.27-.31.48-.69.63-1.13h3.4a6.06 6.06 0 0 1-3.54 4.23c-.91.4-1.95.6-3.1.6Zm11.1-3.85.71-4.17h.53l5-4.76h4.15l-6.68 6.3h-.86l-2.86 2.63Zm-3.9 3.6L103.5 7h3.61l-2.88 16.71h-3.6Zm8.14 0-2.88-5.46 2.82-2.45 4.28 7.91h-4.22Zm9.68-3.2h1.6c.05.67.35 1.2.9 1.57.56.38 1.28.57 2.19.57.94 0 1.7-.2 2.32-.6a2 2 0 0 0 .91-1.79c0-.47-.11-.88-.34-1.23a2.3 2.3 0 0 0-.94-.82c-.39-.2-.83-.3-1.33-.3h-2.27v-1.34h2.25a2.8 2.8 0 0 0 1.76-.6c.4-.37.6-.84.6-1.43 0-.67-.24-1.2-.73-1.6-.5-.41-1.16-.62-2-.62-.86 0-1.56.2-2.13.6-.56.4-.86.92-.9 1.56h-1.58c.03-.68.24-1.28.63-1.8.4-.52.93-.93 1.6-1.22.68-.3 1.45-.44 2.3-.44.89 0 1.66.15 2.3.45.65.3 1.16.72 1.51 1.25.36.52.54 1.12.54 1.78 0 .7-.2 1.26-.6 1.7-.39.45-.89.76-1.5.94v.12c.47.05.87.21 1.22.49.36.28.64.63.84 1.07.2.43.3.91.3 1.44 0 .74-.2 1.4-.6 1.95-.4.56-.95.99-1.67 1.3-.71.31-1.54.47-2.47.47-.9 0-1.7-.15-2.4-.44-.7-.3-1.25-.7-1.66-1.21a3.03 3.03 0 0 1-.65-1.81ZM133.68 24c-.78 0-1.5-.15-2.15-.44a3.73 3.73 0 0 1-1.55-1.29 3.58 3.58 0 0 1-.58-2.06c0-.62.12-1.14.37-1.56a2.9 2.9 0 0 1 1.03-1.05c.45-.27.97-.49 1.58-.64.61-.16 1.29-.28 2.02-.37l1.85-.23c.5-.06.9-.17 1.16-.3.26-.15.4-.38.4-.7v-.29a2.6 2.6 0 0 0-.8-2.01c-.52-.5-1.28-.75-2.27-.75-.94 0-1.7.2-2.3.6-.58.4-1 .86-1.23 1.4l-1.44-.5c.3-.68.7-1.23 1.22-1.64.52-.4 1.1-.7 1.75-.89a7.06 7.06 0 0 1 3.5-.09 4.5 4.5 0 0 1 1.51.66c.47.3.84.73 1.13 1.28.3.54.43 1.23.43 2.07v8.51h-1.5v-1.98h-.1a4.19 4.19 0 0 1-2.14 1.93 4.9 4.9 0 0 1-1.89.34Zm.2-1.33c.8 0 1.5-.17 2.09-.51a3.6 3.6 0 0 0 1.35-1.37c.33-.57.49-1.2.49-1.88V17.1c-.12.1-.3.2-.57.27-.26.08-.56.16-.9.22a21.85 21.85 0 0 1-1.94.27c-.73.09-1.36.23-1.88.41-.52.19-.92.44-1.2.77-.27.32-.41.73-.41 1.24 0 .76.28 1.35.85 1.77a3.5 3.5 0 0 0 2.12.62Zm15.3-.99 4.88-10.5h1.47l-5.75 12.53h-1.2l-5.7-12.53h1.45l4.84 10.5Zm-5.3-10.5V23.7h-1.5V11.18h1.5Zm10.59 12.53V11.18h1.5V23.7h-1.5Zm9.62.27a5.44 5.44 0 0 1-5-3.1 7.45 7.45 0 0 1-.73-3.38c0-1.28.24-2.4.73-3.38a5.44 5.44 0 0 1 5-3.11 5.4 5.4 0 0 1 4.99 3.1c.5.98.74 2.11.74 3.4 0 1.27-.25 2.39-.73 3.36a5.4 5.4 0 0 1-5 3.1Zm0-1.33c.9 0 1.67-.24 2.3-.7.62-.47 1.1-1.1 1.42-1.88.33-.77.49-1.63.49-2.57 0-.93-.16-1.8-.5-2.58a4.4 4.4 0 0 0-1.42-1.88 3.7 3.7 0 0 0-2.3-.71c-.89 0-1.66.24-2.29.7-.62.48-1.1 1.11-1.43 1.9a6.74 6.74 0 0 0-.48 2.57c0 .94.16 1.8.48 2.57.33.78.8 1.4 1.43 1.87.63.47 1.4.7 2.3.7Zm8.08 1.06V11.18h1.51v5.64h1.42l4.83-5.64h1.95l-5.22 6.03 5.34 6.5h-1.95l-4.49-5.52h-1.88v5.52h-1.5Z"></path><path stroke="#3D3D3D" stroke-linecap="round" stroke-linejoin="round" stroke-width="1.75" d="M26.4 28.08v-14.3h2.96a.64.64 0 0 0 .6-.42.65.65 0 0 0-.18-.71L16.68 1.44a1.82 1.82 0 0 0-2.36 0l-13.1 11.2a.64.64 0 0 0 .42 1.14H4.6v14.3a.92.92 0 0 0 .9.92h19.97a.9.9 0 0 0 .84-.57.92.92 0 0 0 .07-.35Z"></path><path fill="#5DB976" d="M15.5 10.6a2.42 2.42 0 0 1 2.44 2.4h1.62c0-2.2-1.82-4-4.06-4a4.04 4.04 0 0 0-4.06 4v1.6h-.81c-.9 0-1.63.72-1.63 1.6v7.2c0 .88.73 1.6 1.63 1.6h9.74c.9 0 1.63-.72 1.63-1.6v-7.2c0-.88-.73-1.6-1.63-1.6h-7.3V13c0-1.32 1.09-2.4 2.43-2.4Zm4.88 12.8H16.3v-1.82c.49-.28.82-.79.82-1.38 0-.88-.73-1.6-1.63-1.6-.9 0-1.63.72-1.63 1.6 0 .59.33 1.1.82 1.38v1.82h-4.06v-7.2h9.74v7.2Z"></path></g><defs><clipPath id="a"><path fill="#fff" d="M0 0h182v30H0z"></path></clipPath></defs></svg>