<svg xmlns="http://www.w3.org/2000/svg" width="32" height="32" fill="none"><path fill="#3D3D3D" fill-rule="evenodd" d="M32 16a16 16 0 1 1-32 0 16 16 0 0 1 32 0Zm-15.43-4.19c-1.55.65-4.66 1.99-9.33 4.02-.75.3-1.15.6-1.19.89-.06.48.55.67 1.38.93l.35.12c.82.26 1.92.57 2.49.58.52.02 1.1-.2 1.73-.64 4.36-2.94 6.61-4.42 6.75-4.46.1-.02.24-.05.33.04.1.08.09.24.08.28-.06.26-2.46 2.48-3.7 3.63l-.71.67-.38.38c-.76.73-1.32 1.28.03 2.17.66.43 1.18.79 1.7 1.14.57.4 1.14.78 1.88 1.26l.54.38c.66.47 1.25.9 1.99.82.43-.03.87-.44 1.1-1.64.52-2.83 1.57-8.97 1.8-11.5.03-.22 0-.5-.02-.63a.67.67 0 0 0-.23-.43c-.19-.16-.49-.19-.62-.19-.6.01-1.52.33-5.97 2.18Z" clip-rule="evenodd"></path></svg>